<?xml version="1.0" encoding="UTF-8" standalone="no"?>
<svg
   xmlns:dc="http://purl.org/dc/elements/1.1/"
   xmlns:cc="http://creativecommons.org/ns#"
   xmlns:rdf="http://www.w3.org/1999/02/22-rdf-syntax-ns#"
   xmlns:svg="http://www.w3.org/2000/svg"
   xmlns="http://www.w3.org/2000/svg"
   xmlns:sodipodi="http://sodipodi.sourceforge.net/DTD/sodipodi-0.dtd"
   xmlns:inkscape="http://www.inkscape.org/namespaces/inkscape"
   version="1.1"
   id="svg10"
   xml:space="preserve"
   width="816"
   height="133.33333"
   viewBox="0 0 816 133.33333"
   sodipodi:docname="sinicx_logo.svg"
   inkscape:version="1.0.2-2 (e86c870879, 2021-01-15)"><metadata
     id="metadata16"><rdf:RDF><cc:Work
         rdf:about=""><dc:format>image/svg+xml</dc:format><dc:type
           rdf:resource="http://purl.org/dc/dcmitype/StillImage" /><dc:title></dc:title></cc:Work></rdf:RDF></metadata><defs
     id="defs14"><clipPath
       clipPathUnits="userSpaceOnUse"
       id="clipPath28"><path
         d="M 0,1080 H 1920 V 0 H 0 Z"
         id="path26" /></clipPath><clipPath
       clipPathUnits="userSpaceOnUse"
       id="clipPath128"><path
         d="M 0,1080 H 1920 V 0 H 0 Z"
         id="path126" /></clipPath><clipPath
       clipPathUnits="userSpaceOnUse"
       id="clipPath18"><path
         d="M 0,1080 H 1920 V 0 H 0 Z"
         id="path16" /></clipPath></defs><sodipodi:namedview
     pagecolor="#ffffff"
     bordercolor="#666666"
     borderopacity="1"
     objecttolerance="10"
     gridtolerance="10"
     guidetolerance="10"
     inkscape:pageopacity="0"
     inkscape:pageshadow="2"
     inkscape:window-width="1440"
     inkscape:window-height="914"
     id="namedview12"
     showgrid="false"
     fit-margin-top="0"
     fit-margin-left="0"
     fit-margin-right="0"
     fit-margin-bottom="0"
     inkscape:zoom="0.434375"
     inkscape:cx="484.54599"
     inkscape:cy="90.825431"
     inkscape:window-x="-6"
     inkscape:window-y="-6"
     inkscape:window-maximized="1"
     inkscape:current-layer="g18" /><g
     id="g18"
     inkscape:groupmode="layer"
     inkscape:label="SINICX_Logo_2024_06 (1)"
     transform="matrix(1.3333333,0,0,-1.3333333,-871.99998,786.66665)"><g
       id="g122"><g
         id="g124"
         clip-path="url(#clipPath128)"><g
           id="g130"
           transform="translate(1236,540)"><path
             d="m 0,0 c 0,14.984 9.494,26.752 30,27.5 l -2,20 C -3,45.572 -22,25 -22,0 c 0,-25 19,-45.572 50,-47.5 l 2,20 C 9.494,-26.752 0,-14.984 0,0 m -74,47.5 -2,-20 c 20.506,-0.748 30,-12.516 30,-27.5 0,-14.984 -9.494,-26.752 -30,-27.5 l 2,-20 c 31,1.928 50,22.5 50,47.5 0,25 -19,45.572 -50,47.5 M -158,-50 c 10.163,0 23.222,1.516 35.5,7.5 l 1,21.5 c -15.419,-7.98 -24.349,-9.5 -34,-9.5 -22.885,0 -35,10.715 -35,30.5 0,20.281 11.498,31 33.5,31 10.539,0 19.19,-2.25 33.5,-10 l -1,21 c -12.951,6.497 -23.605,8 -33.5,8 -34.125,0 -55.5,-19.341 -55.5,-50 0,-30.784 21.128,-50 55.5,-50 m -103.5,2.5 h 22 v 95 h -22 z M -536,-50 c 27.127,0 42,11.809 42,30.326 0,23.018 -24.358,28.393 -43.5,31.7 -13.347,2.306 -23,4.28 -23,10.8 0,5.697 6.895,8.092 21.673,8.092 13.023,0 27.965,-2.697 40.327,-7.592 l -1,21 C -515.737,49.045 -526.907,50 -539,50 c -26.578,0 -43,-10.415 -43,-27.122 0,-22.856 23.488,-27.807 42.038,-31.027 13.246,-2.343 24.462,-4.36 24.462,-12.006 0,-8.118 -10.957,-10.019 -20.5,-10.019 -15.487,0 -27.243,4.543 -45.5,13.674 l 1,-22.5 c 15.24,-7.948 31.788,-11 44.5,-11 m 77.5,2.5 h 22 v 95 h -22 z m 60.5,95 h 21 l 55,-63.5 v 63.5 h 22 v -95 h -21 L -376,16 v -63.5 h -22 z"
             style="fill:#000000;fill-opacity:1;fill-rule:nonzero;stroke:none"
             id="path132" /></g></g></g></g></svg>
